<svg width="60" height="61" viewBox="0 0 60 61" fill="none" xmlns="http://www.w3.org/2000/svg">
<path d="M23.1848 11.101V2.77124H35.6794L36.1422 11.101H48.174V24.9839L35.6794 25.9095L36.1422 33.7765L50.0251 34.2392L56.9666 41.6435L50.0251 49.9732H35.6794V57.3774H23.1848V48.5849H10.6901V34.2392H23.1848V25.9095L7.91352 24.9839L2.36035 17.1169L9.30182 11.101H23.1848Z" fill="#FEF1CF"/>
<path d="M37.8488 36.4962H33.5683V23.6545H37.8488V36.4962ZM37.8488 47.1976V57.899C37.8488 58.4667 37.6234 59.0111 37.222 59.4125C36.8206 59.8138 36.2762 60.0393 35.7086 60.0393H22.8668C22.2992 60.0393 21.7548 59.8138 21.3534 59.4125C20.9521 59.0111 20.7266 58.4667 20.7266 57.899V47.1976H25.0071V55.7588H33.5683V47.1976H37.8488ZM20.7266 36.4962V23.6545H25.0071V36.4962H20.7266ZM37.8488 12.953H33.5683V4.3919H25.0071V12.953H20.7266V2.25161C20.7266 1.68397 20.9521 1.13958 21.3534 0.738203C21.7548 0.336822 22.2992 0.111328 22.8668 0.111328H35.7086C36.2762 0.111328 36.8206 0.336822 37.222 0.738203C37.6234 1.13958 37.8488 1.68397 37.8488 2.25161V12.953Z" fill="#FEB101"/>
<path d="M9.81143 12.9532L5.04715 18.3039L9.80715 23.6546H46.4103V12.9532H9.81143ZM8.8483 8.67261H48.5506C49.1182 8.67261 49.6626 8.8981 50.064 9.29948C50.4654 9.70086 50.6909 10.2453 50.6909 10.8129V25.7949C50.6909 26.3625 50.4654 26.9069 50.064 27.3083C49.6626 27.7097 49.1182 27.9352 48.5506 27.9352H8.8483C8.54579 27.9353 8.24669 27.8712 7.97074 27.7472C7.69478 27.6233 7.44824 27.4422 7.24737 27.216L0.586799 19.725C0.238978 19.3334 0.046875 18.8277 0.046875 18.3039C0.046875 17.7801 0.238978 17.2744 0.586799 16.8827L7.24737 9.39174C7.44824 9.16554 7.69478 8.98449 7.97074 8.86053C8.24669 8.73658 8.54579 8.67253 8.8483 8.67261ZM54.248 41.847L49.4923 47.1977H12.8892V36.4963H49.488L54.248 41.847ZM50.4512 32.2157H10.7532C10.1855 32.2157 9.64113 32.4412 9.23975 32.8426C8.83836 33.244 8.61287 33.7884 8.61287 34.356V49.338C8.61287 49.9057 8.83836 50.4501 9.23975 50.8514C9.64113 51.2528 10.1855 51.4783 10.7532 51.4783H50.4555C50.758 51.4784 51.0571 51.4143 51.333 51.2904C51.609 51.1664 51.8555 50.9854 52.0564 50.7592L58.717 43.2682C59.0648 42.8765 59.2569 42.3709 59.2569 41.847C59.2569 41.3232 59.0648 40.8176 58.717 40.4259L52.0564 32.9349C51.8555 32.7087 51.609 32.5276 51.333 32.4037C51.0571 32.2797 50.758 32.2157 50.4555 32.2157H50.4512Z" fill="#FEB101"/>
</svg>
