<svg width="61" height="61" viewBox="0 0 61 61" fill="none" xmlns="http://www.w3.org/2000/svg">
<g clip-path="url(#clip0_425_2067)">
<path d="M17.0936 8.58321V13.2426L15.8229 16.6312L17.0936 17.902H26.4124L27.6831 11.1247H57.3338L58.181 37.3867L42.0849 38.6574V45.0111L14.1286 45.8583L13.705 57.7186L5.65695 58.5657V49.6705V22.9849V17.902L4.80979 15.7841L1.84473 11.9719V8.58321L3.96263 4.77098L6.92769 2.65308H11.5871L15.8229 5.61814L17.0936 8.58321Z" fill="#FEF1CF"/>
<path d="M58.3374 7.95682H26.9557C25.8725 7.95682 24.9943 8.83497 24.9943 9.91823V15.8023H17.8058C19.0639 14.1374 19.764 12.0952 19.764 9.91823C19.7641 4.51062 15.3647 0.111328 9.95717 0.111328C4.54969 0.111328 0.150391 4.51062 0.150391 9.91811C0.150391 13.0504 1.59889 15.9036 4.07308 17.7532V58.2985C4.07308 59.3816 4.95122 60.2599 6.03448 60.2599H13.88C14.9631 60.2599 15.8414 59.3818 15.8414 58.2985V47.1841C15.8779 47.1841 42.6469 47.1841 42.6469 47.1841C43.7257 47.1838 44.608 46.3064 44.608 45.2227V39.3386H58.3376C59.4207 39.3386 60.299 38.4604 60.299 37.3772V9.91811C60.2988 8.83497 59.4207 7.95682 58.3374 7.95682ZM11.9186 45.2227V56.3371H7.99589V19.5265C9.28555 19.7928 10.6645 19.7853 11.9186 19.5265V45.2227ZM9.95717 15.8022C6.82875 15.8022 4.07308 13.2677 4.07308 9.91811C4.07308 6.67362 6.71268 4.03402 9.95717 4.03402C13.2017 4.03402 15.8413 6.67362 15.8413 9.91811C15.8413 13.2634 13.0888 15.8022 9.95717 15.8022ZM15.8413 43.2613V19.725H24.9943V37.3773C24.9943 38.1107 25.4105 38.7974 26.0785 39.1317L34.3381 43.2614H15.8413V43.2613ZM40.6852 42.049L35.264 39.3386H40.6852V42.049ZM56.3762 35.4159H42.6466H28.9171V17.7636V11.8795H56.3762V35.4159Z" fill="#FEB101"/>
<path d="M36.7619 19.7252L32.8389 23.6482L36.7619 27.5712L40.6848 23.6482L36.7619 19.7252Z" fill="#FEB101"/>
<path d="M48.5294 19.7252L44.6064 23.6482L48.5294 27.5712L52.4524 23.6482L48.5294 19.7252Z" fill="#FEB101"/>
</g>
<defs>
<clipPath id="clip0_425_2067">
<rect width="60.1485" height="60.1485" fill="white" transform="translate(0.150391 0.111328)"/>
</clipPath>
</defs>
</svg>
